<?xml version="1.0" encoding="UTF-8" standalone="no"?>
<!DOCTYPE svg PUBLIC "-//W3C//DTD SVG 1.1//EN" "http://www.w3.org/Graphics/SVG/1.1/DTD/svg11.dtd">
<!-- Generated by graphviz version 2.40.1 (20161225.0304)
 -->
<!-- Title: MCUnit Pages: 1 -->
<svg width="886pt" height="513pt" viewBox="0.00 0.00 886.00 513.20" xmlns="http://www.w3.org/2000/svg" xmlns:xlink="http://www.w3.org/1999/xlink">
<g id="graph0" class="graph" transform="scale(1 1) rotate(0) translate(4 509.2)">
<title>MCUnit</title>
<polygon fill="#ffffff" stroke="transparent" points="-4,4 -4,-509.2 882,-509.2 882,4 -4,4"/>
<g id="clust1" class="cluster">
<title>cluster_0</title>
<polygon fill="#d3d3d3" stroke="#d3d3d3" points="8,-8 8,-497.2 136,-497.2 136,-8 8,-8"/>
<text text-anchor="middle" x="72" y="-480.6" font-family="Times,serif" font-size="14.00" fill="#000000">JUnit Runner</text>
</g>
<g id="clust2" class="cluster">
<title>cluster_1</title>
<polygon fill="#d3d3d3" stroke="#d3d3d3" points="492,-81 492,-497.2 870,-497.2 870,-81 492,-81"/>
<text text-anchor="middle" x="681" y="-480.6" font-family="Times,serif" font-size="14.00" fill="#000000">ModLauncher</text>
</g>
<g id="clust3" class="cluster">
<title>cluster_3</title>
<polygon fill="#d3d3d3" stroke="#d3d3d3" points="144,-81 144,-497.2 368,-497.2 368,-81 144,-81"/>
<text text-anchor="middle" x="256" y="-480.6" font-family="Times,serif" font-size="14.00" fill="#000000">MCUnit</text>
</g>
<!-- Runner -->
<g id="node1" class="node">
<title>Runner</title>
<polygon fill="#ffffff" stroke="#ffffff" points="72,-464.4 16.3793,-446.4 72,-428.4 127.6207,-446.4 72,-464.4"/>
<text text-anchor="middle" x="72" y="-442.2" font-family="Times,serif" font-size="14.00" fill="#000000">Runner</text>
</g>
<!-- MinecraftLauncher -->
<g id="node10" class="node">
<title>MinecraftLauncher</title>
<ellipse fill="#ffffff" stroke="#ffffff" cx="256" cy="-446.4" rx="85.6319" ry="18"/>
<text text-anchor="middle" x="256" y="-442.2" font-family="Times,serif" font-size="14.00" fill="#000000">MinecraftLauncher</text>
</g>
<!-- Runner&#45;&gt;MinecraftLauncher -->
<g id="edge8" class="edge">
<title>Runner-&gt;MinecraftLauncher</title>
<path fill="none" stroke="#000000" d="M127.7031,-446.4C138.4637,-446.4 149.2243,-446.4 159.9849,-446.4"/>
<polygon fill="#000000" stroke="#000000" points="160.3017,-449.9001 170.3017,-446.4 160.3017,-442.9001 160.3017,-449.9001"/>
</g>
<!-- RunTests -->
<g id="node2" class="node">
<title>RunTests</title>
<ellipse fill="#ffffff" stroke="#ffffff" cx="78" cy="-34" rx="49.8579" ry="18"/>
<text text-anchor="middle" x="78" y="-29.8" font-family="Times,serif" font-size="14.00" fill="#000000">Run Tests</text>
</g>
<!-- LaunchTesting -->
<g id="node3" class="node">
<title>LaunchTesting</title>
<ellipse fill="#ffffff" stroke="#ffffff" cx="577" cy="-446.4" rx="68.9216" ry="18"/>
<text text-anchor="middle" x="577" y="-442.2" font-family="Times,serif" font-size="14.00" fill="#000000">LaunchTesting</text>
</g>
<!-- ModLauncher -->
<g id="node4" class="node">
<title>ModLauncher</title>
<ellipse fill="#ffffff" stroke="#ffffff" cx="600" cy="-373.4" rx="65.9755" ry="18"/>
<text text-anchor="middle" x="600" y="-369.2" font-family="Times,serif" font-size="14.00" fill="#000000">ModLauncher</text>
</g>
<!-- LaunchTesting&#45;&gt;ModLauncher -->
<g id="edge1" class="edge">
<title>LaunchTesting-&gt;ModLauncher</title>
<path fill="none" stroke="#000000" d="M582.6854,-428.3551C585.2563,-420.1951 588.3534,-410.3652 591.2132,-401.2887"/>
<polygon fill="#000000" stroke="#000000" points="594.6334,-402.08 594.3003,-391.4904 587.9569,-399.9764 594.6334,-402.08"/>
</g>
<!-- ModLauncherCallback -->
<g id="node5" class="node">
<title>ModLauncherCallback</title>
<ellipse fill="#ffffff" stroke="#ffffff" cx="600" cy="-284.6" rx="100.1239" ry="18"/>
<text text-anchor="middle" x="600" y="-280.4" font-family="Times,serif" font-size="14.00" fill="#000000">ModLauncherCallback</text>
</g>
<!-- ModLauncher&#45;&gt;ModLauncherCallback -->
<g id="edge2" class="edge">
<title>ModLauncher-&gt;ModLauncherCallback</title>
<path fill="none" stroke="#000000" d="M600,-355.0006C600,-342.8949 600,-326.8076 600,-313.0674"/>
<polygon fill="#000000" stroke="#000000" points="603.5001,-312.672 600,-302.672 596.5001,-312.6721 603.5001,-312.672"/>
<text text-anchor="middle" x="662.5919" y="-324.8" font-family="Times,serif" font-size="14.00" fill="#000000">ILaunchPluginService</text>
</g>
<!-- MinecraftForge -->
<g id="node6" class="node">
<title>MinecraftForge</title>
<ellipse fill="#ffffff" stroke="#ffffff" cx="790" cy="-284.6" rx="71.766" ry="18"/>
<text text-anchor="middle" x="790" y="-280.4" font-family="Times,serif" font-size="14.00" fill="#000000">MinecraftForge</text>
</g>
<!-- ModLauncher&#45;&gt;MinecraftForge -->
<g id="edge3" class="edge">
<title>ModLauncher-&gt;MinecraftForge</title>
<path fill="none" stroke="#000000" d="M657.651,-364.5756C694.8869,-358.0214 739.2278,-348.3489 755,-337.4 764.3794,-330.8889 771.9077,-320.9749 777.5436,-311.4891"/>
<polygon fill="#000000" stroke="#000000" points="780.6488,-313.1053 782.3659,-302.6506 774.5039,-309.7526 780.6488,-313.1053"/>
</g>
<!-- AwaitingModLauncher -->
<g id="node11" class="node">
<title>AwaitingModLauncher</title>
<ellipse fill="#ffffff" stroke="#ffffff" cx="256" cy="-284.6" rx="104.1779" ry="18"/>
<text text-anchor="middle" x="256" y="-280.4" font-family="Times,serif" font-size="14.00" fill="#000000">Awaiting ModLauncher</text>
</g>
<!-- ModLauncherCallback&#45;&gt;AwaitingModLauncher -->
<g id="edge12" class="edge">
<title>ModLauncherCallback-&gt;AwaitingModLauncher</title>
<path fill="none" stroke="#000000" d="M499.7498,-284.6C459.2288,-284.6 412.2345,-284.6 370.3852,-284.6"/>
<polygon fill="#000000" stroke="#000000" points="370.1449,-281.1001 360.1449,-284.6 370.1448,-288.1001 370.1449,-281.1001"/>
<text text-anchor="middle" x="430.0135" y="-291.8" font-family="Times,serif" font-size="14.00" fill="#000000">Provides ClassLoader</text>
</g>
<!-- TestModLocator -->
<g id="node7" class="node">
<title>TestModLocator</title>
<ellipse fill="#ffffff" stroke="#ffffff" cx="604" cy="-195.8" rx="75.8624" ry="18"/>
<text text-anchor="middle" x="604" y="-191.6" font-family="Times,serif" font-size="14.00" fill="#000000">TestModLocator</text>
</g>
<!-- MinecraftForge&#45;&gt;TestModLocator -->
<g id="edge4" class="edge">
<title>MinecraftForge-&gt;TestModLocator</title>
<path fill="none" stroke="#000000" d="M756.3168,-268.519C725.6957,-253.8999 680.3497,-232.2508 647.0971,-216.3754"/>
<polygon fill="#000000" stroke="#000000" points="648.5934,-213.2114 638.0612,-212.0615 645.5775,-219.5284 648.5934,-213.2114"/>
<text text-anchor="middle" x="750.3191" y="-236" font-family="Times,serif" font-size="14.00" fill="#000000">IModLocator</text>
</g>
<!-- RunningMinecraft -->
<g id="node9" class="node">
<title>RunningMinecraft</title>
<ellipse fill="#ffffff" stroke="#ffffff" cx="780" cy="-195.8" rx="82.2449" ry="18"/>
<text text-anchor="middle" x="780" y="-191.6" font-family="Times,serif" font-size="14.00" fill="#000000">RunningMinecraft</text>
</g>
<!-- MinecraftForge&#45;&gt;RunningMinecraft -->
<g id="edge6" class="edge">
<title>MinecraftForge-&gt;RunningMinecraft</title>
<path fill="none" stroke="#000000" d="M787.928,-266.2006C786.5512,-253.975 784.7172,-237.6887 783.1599,-223.8599"/>
<polygon fill="#000000" stroke="#000000" points="786.6323,-223.4175 782.0351,-213.872 779.6763,-224.2009 786.6323,-223.4175"/>
</g>
<!-- MCUnitMod -->
<g id="node8" class="node">
<title>MCUnitMod</title>
<ellipse fill="#ffffff" stroke="#ffffff" cx="604" cy="-107" rx="61.4379" ry="18"/>
<text text-anchor="middle" x="604" y="-102.8" font-family="Times,serif" font-size="14.00" fill="#000000">MCUnitMod</text>
</g>
<!-- TestModLocator&#45;&gt;MCUnitMod -->
<g id="edge5" class="edge">
<title>TestModLocator-&gt;MCUnitMod</title>
<path fill="none" stroke="#000000" d="M604,-177.4006C604,-165.2949 604,-149.2076 604,-135.4674"/>
<polygon fill="#000000" stroke="#000000" points="607.5001,-135.072 604,-125.072 600.5001,-135.0721 607.5001,-135.072"/>
<text text-anchor="middle" x="628.4965" y="-147.2" font-family="Times,serif" font-size="14.00" fill="#000000">Provides</text>
</g>
<!-- AwaitingMinecraft -->
<g id="node12" class="node">
<title>AwaitingMinecraft</title>
<ellipse fill="#ffffff" stroke="#ffffff" cx="256" cy="-107" rx="87.4154" ry="18"/>
<text text-anchor="middle" x="256" y="-102.8" font-family="Times,serif" font-size="14.00" fill="#000000">Awaiting Minecraft</text>
</g>
<!-- MCUnitMod&#45;&gt;AwaitingMinecraft -->
<g id="edge13" class="edge">
<title>MCUnitMod-&gt;AwaitingMinecraft</title>
<path fill="none" stroke="#000000" d="M542.2669,-107C490.1403,-107 414.5547,-107 354.1404,-107"/>
<polygon fill="#000000" stroke="#000000" points="353.8151,-103.5001 343.8151,-107 353.8151,-110.5001 353.8151,-103.5001"/>
<text text-anchor="middle" x="442.9944" y="-114.2" font-family="Times,serif" font-size="14.00" fill="#000000">Notifies Load Complete</text>
</g>
<!-- RunningMinecraft&#45;&gt;MCUnitMod -->
<g id="edge7" class="edge">
<title>RunningMinecraft-&gt;MCUnitMod</title>
<path fill="none" stroke="#000000" d="M758.7012,-178.1513C744.4481,-166.9752 724.9031,-152.8295 706,-143 690.8919,-135.1438 673.6889,-128.3363 657.7708,-122.8203"/>
<polygon fill="#000000" stroke="#000000" points="658.6498,-119.4234 648.0558,-119.5548 656.4195,-126.0586 658.6498,-119.4234"/>
<text text-anchor="middle" x="770.263" y="-147.2" font-family="Times,serif" font-size="14.00" fill="#000000">EventListener</text>
</g>
<!-- MinecraftLauncher&#45;&gt;LaunchTesting -->
<g id="edge11" class="edge">
<title>MinecraftLauncher-&gt;LaunchTesting</title>
<path fill="none" stroke="#000000" d="M341.6004,-446.4C390.0487,-446.4 450.2343,-446.4 497.6209,-446.4"/>
<polygon fill="#000000" stroke="#000000" points="497.8355,-449.9001 507.8355,-446.4 497.8355,-442.9001 497.8355,-449.9001"/>
<text text-anchor="middle" x="424.8026" y="-453.6" font-family="Times,serif" font-size="14.00" fill="#000000">Seperate Thread</text>
</g>
<!-- MinecraftLauncher&#45;&gt;AwaitingModLauncher -->
<g id="edge9" class="edge">
<title>MinecraftLauncher-&gt;AwaitingModLauncher</title>
<path fill="none" stroke="#000000" d="M256,-428.154C256,-400.2351 256,-346.6651 256,-313.4464"/>
<polygon fill="#000000" stroke="#000000" points="259.5001,-313.0275 256,-303.0276 252.5001,-313.0276 259.5001,-313.0275"/>
</g>
<!-- AwaitingModLauncher&#45;&gt;AwaitingMinecraft -->
<g id="edge10" class="edge">
<title>AwaitingModLauncher-&gt;AwaitingMinecraft</title>
<path fill="none" stroke="#000000" d="M256,-266.5934C256,-235.612 256,-172.006 256,-135.1346"/>
<polygon fill="#000000" stroke="#000000" points="259.5001,-135.0542 256,-125.0543 252.5001,-135.0543 259.5001,-135.0542"/>
</g>
<!-- AwaitingMinecraft&#45;&gt;RunTests -->
<g id="edge14" class="edge">
<title>AwaitingMinecraft-&gt;RunTests</title>
<path fill="none" stroke="#000000" d="M216.496,-90.7989C188.0618,-79.1377 149.7445,-63.4233 120.6215,-51.4796"/>
<polygon fill="#000000" stroke="#000000" points="121.7053,-48.1412 111.1251,-47.585 119.0492,-54.6177 121.7053,-48.1412"/>
</g>
</g>
</svg>